<svg width="17" height="17" viewBox="0 0 17 17" fill="none" xmlns="http://www.w3.org/2000/svg">
<path d="M11.4378 2.75972L13.8941 5.75523C13.9976 5.88142 13.9976 6.08732 13.8941 6.21352L7.94668 13.4665L5.41956 13.8086C5.08188 13.855 4.79595 13.5063 4.83407 13.0945L5.11456 10.0127L11.062 2.75972C11.1655 2.63352 11.3343 2.63352 11.4378 2.75972ZM15.8494 1.99922L14.5205 0.37859C14.1065 -0.126197 13.4339 -0.126197 13.0173 0.37859L12.0532 1.55421C11.9498 1.68041 11.9498 1.88631 12.0532 2.0125L14.5096 5.00801C14.613 5.13421 14.7819 5.13421 14.8854 5.00801L15.8494 3.83239C16.2633 3.32428 16.2633 2.504 15.8494 1.99922ZM10.9313 11.4938V14.8746H2.21709V4.24751H8.47498C8.56212 4.24751 8.64381 4.20434 8.70645 4.13128L9.79572 2.80289C10.0027 2.5505 9.85563 2.12209 9.56425 2.12209H1.78137C1.05973 2.12209 0.474243 2.8361 0.474243 3.71616V15.4059C0.474243 16.286 1.05973 17 1.78137 17H11.367C12.0887 17 12.6741 16.286 12.6741 15.4059V10.1655C12.6741 9.81012 12.3228 9.63411 12.1159 9.88318L11.0266 11.2116C10.9667 11.2879 10.9313 11.3876 10.9313 11.4938Z" fill="#008080"/>
</svg>
